PathFileType	4	(X/Y/Z)	\\147.46.242.158\로컬 디스크 (e)\MOCAP Data\Iguana Capture\iguana\Project 2\Capture day 6 after broken\Session 1\Take06.trc
DataRate	CameraRate	NumFrames	NumMarkers	Units	OrigDataRate	OrigDataStartFrame	OrigNumFrames
120.0	120.0	12	23	mm	120.0	59	8064
Frame#	Time	ana:head1			ana:head2			ana:bone1			ana:bone2			ana:bone3			ana:tail1			ana:tail2			ana:tail3			ana:tail4			ana:Rforefoot1			ana:Rforefoot2			ana:Rforefoot3			ana:Lforefoot1			ana:Lforefoot2			ana:Lforefoot3			ana:RhindLeg1			ana:RhindLeg2			ana:RhindLeg3			ana:RhindLeg4			ana:LhindLeg1			ana:LhindLeg2			ana:LhindLeg3			ana:LhindLeg4			
		X1	Y1	Z1	X2	Y2	Z2	X3	Y3	Z3	X4	Y4	Z4	X5	Y5	Z5	X6	Y6	Z6	X7	Y7	Z7	X8	Y8	Z8	X9	Y9	Z9	X10	Y10	Z10	X11	Y11	Z11	X12	Y12	Z12	X13	Y13	Z13	X14	Y14	Z14	X15	Y15	Z15	X16	Y16	Z16	X17	Y17	Z17	X18	Y18	Z18	X19	Y19	Z19	X20	Y20	Z20	X21	Y21	Z21	X22	Y22	Z22	X23	Y23	Z23	

6014	50.108	97.83575	-396.69653	65.60378	105.79593	-392.10675	68.56104	123.79819	-377.00543	61.49462	143.58578	-356.71478	56.83030	165.03970	-333.62061	37.85881	183.57443	-312.16333	24.11107	197.25986	-277.69781	13.18839	192.93842	-239.80989	8.08685	185.45996	-206.67336	7.07503	109.03344	-373.34647	41.57280	107.09024	-366.20712	27.37884	98.00879	-368.46915	10.98325	122.55070	-388.72903	37.38249	124.70126	-388.66232	23.09464	111.46852	-384.11203	11.31824	154.83871	-330.04141	30.36342	138.09924	-329.48883	25.89024	145.62314	-324.58182	8.11127	134.20821	-324.62646	5.69829	173.20529	-342.86673	30.28182	181.14951	-358.22961	24.58242	188.47766	-362.60220	6.27492	187.48218	-375.96365	4.72660	
6015	50.117	97.85416	-397.01260	66.13475	105.73319	-392.35556	68.79340	123.97121	-376.88354	61.50608	143.61316	-356.83444	57.04816	164.91663	-333.45261	37.85596	183.56883	-312.16006	24.23857	197.22162	-277.67084	13.24247	192.91699	-239.79820	8.08887	185.51161	-206.65164	7.10272	108.76700	-373.43121	41.82756	107.19084	-366.33777	27.45260	98.17561	-368.68674	11.04886	122.54098	-388.78046	37.48868	124.57705	-388.85577	23.43460	111.45271	-384.15652	11.38027	154.80113	-329.91129	30.47084	137.69022	-329.68768	26.20703	145.60143	-324.54596	8.12877	134.21567	-324.61841	5.68546	173.08177	-343.00226	30.58546	181.15501	-358.13293	24.59262	188.50354	-362.67075	6.36622	187.60294	-376.12866	4.95025	
6016	50.125	97.93958	-397.13116	66.44125	105.88939	-392.58679	68.84308	124.07510	-376.89078	61.58250	143.62364	-356.84344	57.14545	164.76357	-333.44794	37.96063	183.53970	-311.93491	24.37024	197.14334	-277.64194	13.28084	192.92375	-239.80991	8.06758	185.49736	-206.51459	7.21030	108.74409	-373.60147	41.91984	107.36620	-366.52710	27.47336	98.38806	-368.90024	11.02874	122.51391	-388.92450	37.59425	124.56234	-388.92642	23.53664	111.44394	-384.26315	11.44952	154.62029	-329.73734	30.39025	137.71283	-329.65692	26.17307	145.58603	-324.51300	8.13850	134.18518	-324.60187	5.70559	172.99054	-343.04059	30.80795	181.15903	-358.05493	24.62588	188.56866	-362.79214	6.51538	187.66162	-376.19678	5.04297	
6017	50.133	97.89264	-397.49606	66.79012	105.95507	-392.75302	69.01849	124.07081	-377.02725	61.74785	143.69547	-356.62415	57.06371	164.61610	-333.51541	38.12757	183.53906	-311.53378	24.63083	197.04187	-277.60068	13.33021	192.91368	-239.81059	8.05503	185.51176	-206.55714	7.14964	108.78358	-373.85364	41.91876	107.47948	-366.75571	27.51149	98.49738	-369.15466	11.04689	122.52231	-389.00894	37.63079	124.55116	-389.14944	23.76709	111.44546	-384.40915	11.59367	154.56065	-329.67999	30.39703	137.44148	-329.73264	26.42782	145.58797	-324.49185	8.13258	134.15692	-324.58173	5.72020	172.90179	-342.94614	30.94691	181.14940	-357.94681	24.58343	188.57690	-362.80811	6.57680	187.66351	-376.20706	5.04791	
6018	50.142	97.94635	-397.37601	66.69901	105.88825	-392.87781	69.27463	124.03060	-377.18234	61.90383	143.63260	-356.79471	57.22163	164.44949	-333.59225	38.26978	183.33536	-311.57681	25.00972	197.01753	-277.52731	13.38579	192.92674	-239.82828	8.09229	185.54359	-206.72160	7.08622	108.78683	-374.06058	41.95375	107.53490	-366.98495	27.55670	98.52410	-369.41437	11.14730	122.53971	-388.88187	37.49666	124.51987	-389.39932	23.93804	111.38344	-384.62778	11.81936	154.52121	-329.68481	30.45112	137.27246	-329.78162	26.47004	145.58064	-324.47546	8.15855	134.13048	-324.58286	5.73657	172.77605	-342.86255	31.04826	181.08707	-357.85095	24.53712	188.52936	-362.76563	6.56767	187.64046	-376.14713	4.96238	
6019	50.150	97.99469	-397.56567	66.88201	105.84693	-393.11292	69.66844	123.98712	-377.38556	62.03159	143.48436	-357.35526	57.59016	164.27733	-333.63660	38.38093	183.03726	-311.50018	25.21638	196.99940	-277.34686	13.49479	193.01825	-239.81583	8.15944	185.51041	-206.81013	7.10776	108.84569	-374.26941	42.04090	107.50063	-367.23041	27.67662	98.61069	-369.61908	11.20780	122.55939	-388.96259	37.51653	124.42689	-389.59366	24.04246	111.28219	-384.83142	11.97181	154.43915	-329.72256	30.53788	137.23022	-329.88776	26.36168	145.51241	-324.43109	8.22975	134.09128	-324.58597	5.74457	172.62210	-343.01114	31.24729	181.03058	-357.81805	24.53174	188.44386	-362.68652	6.49555	187.53943	-375.97244	4.71696	
6020	50.158	97.96890	-398.23123	67.44099	106.02531	-393.41144	69.92363	123.92818	-377.68640	62.15995	143.40053	-357.56799	57.69459	164.13766	-333.67288	38.55026	182.55844	-311.46576	25.36707	196.80779	-277.34113	13.87080	193.29913	-239.69728	8.36864	185.60193	-206.65279	7.14447	108.84121	-374.48886	42.11012	107.32143	-367.44949	27.87291	98.59683	-369.82434	11.25300	122.55410	-389.12576	37.58442	124.36998	-389.66144	24.07424	111.23840	-384.97043	12.09434	154.33064	-329.80109	30.66130	137.09215	-329.99341	26.36914	145.34081	-324.31906	8.39115	134.06729	-324.57266	5.76412	172.48264	-343.06354	31.34075	180.97141	-357.82889	24.61066	188.40819	-362.64948	6.47731	187.49176	-375.91275	4.62644	
6021	50.167	97.88447	-398.69394	67.62022	106.07387	-393.59149	69.91891	123.83514	-377.97971	62.16030	143.42171	-357.42368	57.56858	163.97992	-333.75574	38.96429	182.14447	-311.73541	25.70252	196.78630	-277.33240	14.34955	193.69446	-239.57576	8.72625	185.85147	-206.41150	7.23878	108.78036	-374.70926	42.14427	107.24052	-367.68631	27.93304	98.55390	-370.02789	11.32883	122.50484	-389.32687	37.59386	124.35000	-389.68149	24.03526	111.38932	-384.86908	11.96322	154.18158	-329.75180	30.80901	136.97656	-330.01950	26.45068	145.29176	-324.29236	8.51433	134.01097	-324.55777	5.80195	172.37430	-343.05829	31.45588	180.88684	-357.76889	24.68305	188.41388	-362.64383	6.50752	187.50766	-375.91971	4.62612	
6022	50.175	97.84178	-398.85410	67.39809	105.95512	-393.78506	69.80924	123.78393	-378.15564	62.09808	143.35133	-357.48254	57.63649	163.87198	-333.80051	39.34334	182.09502	-311.57104	25.89427	196.91840	-277.20670	14.75642	194.27742	-239.51984	9.20045	186.31451	-206.27898	7.38197	108.71106	-374.87173	42.13475	107.17881	-367.87524	28.01959	98.52197	-370.19290	11.36392	122.42771	-389.54761	37.67449	124.32683	-389.72784	24.00542	111.91454	-384.36118	11.41156	153.78683	-329.65042	31.17509	136.80876	-329.94214	26.62935	145.27577	-324.23492	8.66464	133.92975	-324.53976	5.85059	172.30824	-342.92865	31.45707	180.80751	-357.66406	24.73954	188.45648	-362.67752	6.58351	187.51199	-375.91620	4.63690	
6023	50.183	97.86085	-398.83243	67.18742	105.99377	-394.01340	69.94557	123.73045	-378.32199	62.08478	143.21295	-357.62900	57.82947	163.75154	-333.88141	39.69129	182.34035	-311.36475	26.27495	197.16983	-277.27042	15.28021	195.04971	-239.41068	9.65269	187.00285	-206.22092	7.50903	108.57024	-375.02722	42.14180	107.16926	-367.98187	28.13072	98.52426	-370.30441	11.35240	122.28049	-389.71707	37.89986	124.27421	-389.82065	23.94054	112.10119	-384.18362	11.20745	153.51093	-329.97037	31.41973	136.67017	-329.93445	26.75749	145.25285	-324.16238	8.74032	133.80554	-324.60178	5.94939	172.17798	-342.53668	31.23342	180.72250	-357.50079	24.74171	188.48109	-362.70935	6.67568	187.49896	-375.90982	4.63958	
6024	50.192	97.73076	-399.38834	67.43489	105.98360	-394.22482	70.05872	123.60835	-378.45905	61.95796	143.12173	-357.76883	57.92122	163.65756	-333.86572	39.92897	182.30646	-311.41739	26.96380	197.60791	-277.45294	15.89774	196.03712	-239.40749	10.05939	188.06105	-206.44101	7.83001	108.36098	-375.20926	42.20139	107.12280	-368.05905	28.21809	98.52596	-370.34985	11.34905	122.20736	-389.79581	37.96643	124.15240	-389.99954	23.78335	112.08641	-384.20419	11.18884	153.59515	-330.11432	31.49760	136.62157	-329.93222	26.78676	145.27493	-324.12424	8.76643	133.74858	-324.64478	6.00230	172.04091	-342.43698	31.32664	180.63751	-357.39603	24.76585	188.44891	-362.70737	6.73550	187.48520	-375.92239	4.62427	
6025	50.200	97.61841	-399.75406	67.60223	105.95038	-394.38699	70.07109	123.54688	-378.44913	61.75400	142.99236	-357.92877	57.89561	163.64508	-333.72055	40.06116	182.07568	-311.56958	27.37936	198.10214	-277.59070	16.44466	197.22176	-239.54655	10.48249	189.53719	-206.61302	8.20731	108.17120	-375.42554	42.43334	106.93960	-368.21381	28.38103	98.47767	-370.40604	11.39753	122.23689	-389.97751	38.00854	124.09368	-390.04074	23.70500	112.06860	-384.19891	11.17226	153.68436	-330.10278	31.59131	136.56036	-330.04904	26.85300	145.25516	-324.11487	8.79095	133.72997	-324.72650	6.02554	172.00194	-342.65421	31.74524	180.58887	-357.33075	24.81646	188.42361	-362.70871	6.82766	187.48492	-375.93179	4.59973	
